<svg xmlns="http://www.w3.org/2000/svg" width="741" height="258" viewBox="0 0 741 258" role="img" aria-label="John Paul Tayong">
  <defs>
    <linearGradient id="amber" x1="0" y1="0" x2="0" y2="1">
      <stop offset="0" stop-color="#D8A566"/>
      <stop offset="1" stop-color="#C2925A"/>
    </linearGradient>
    <!-- moving sheen band -->
    <linearGradient id="sheen" x1="0" y1="0" x2="1" y2="0">
      <stop offset="0" stop-color="#FBEAD0" stop-opacity="0"/>
      <stop offset="0.45" stop-color="#FBEAD0" stop-opacity="0"/>
      <stop offset="0.5" stop-color="#FBEAD0" stop-opacity="0.85"/>
      <stop offset="0.55" stop-color="#FBEAD0" stop-opacity="0"/>
      <stop offset="1" stop-color="#FBEAD0" stop-opacity="0"/>
      <animateTransform attributeName="gradientTransform" type="translate"
        from="-1 0" to="1 0" dur="3.6s" begin="0.4s" repeatCount="indefinite"/>
    </linearGradient>
    <mask id="wm"><rect x="50" y="22" width="11" height="11" rx="1.5"  fill="#fff"/><rect x="64" y="22" width="11" height="11" rx="1.5"  fill="#fff"/><rect x="78" y="22" width="11" height="11" rx="1.5"  fill="#fff"/><rect x="64" y="36" width="11" height="11" rx="1.5"  fill="#fff"/><rect x="64" y="50" width="11" height="11" rx="1.5"  fill="#fff"/><rect x="64" y="64" width="11" height="11" rx="1.5"  fill="#fff"/><rect x="64" y="78" width="11" height="11" rx="1.5"  fill="#fff"/><rect x="22" y="92" width="11" height="11" rx="1.5"  fill="#fff"/><rect x="64" y="92" width="11" height="11" rx="1.5"  fill="#fff"/><rect x="36" y="106" width="11" height="11" rx="1.5"  fill="#fff"/><rect x="50" y="106" width="11" height="11" rx="1.5"  fill="#fff"/><rect x="120" y="22" width="11" height="11" rx="1.5"  fill="#fff"/><rect x="134" y="22" width="11" height="11" rx="1.5"  fill="#fff"/><rect x="148" y="22" width="11" height="11" rx="1.5"  fill="#fff"/><rect x="106" y="36" width="11" height="11" rx="1.5"  fill="#fff"/><rect x="162" y="36" width="11" height="11" rx="1.5"  fill="#fff"/><rect x="106" y="50" width="11" height="11" rx="1.5"  fill="#fff"/><rect x="162" y="50" width="11" height="11" rx="1.5"  fill="#fff"/><rect x="106" y="64" width="11" height="11" rx="1.5"  fill="#fff"/><rect x="162" y="64" width="11" height="11" rx="1.5"  fill="#fff"/><rect x="106" y="78" width="11" height="11" rx="1.5"  fill="#fff"/><rect x="162" y="78" width="11" height="11" rx="1.5"  fill="#fff"/><rect x="106" y="92" width="11" height="11" rx="1.5"  fill="#fff"/><rect x="162" y="92" width="11" height="11" rx="1.5"  fill="#fff"/><rect x="120" y="106" width="11" height="11" rx="1.5"  fill="#fff"/><rect x="134" y="106" width="11" height="11" rx="1.5"  fill="#fff"/><rect x="148" y="106" width="11" height="11" rx="1.5"  fill="#fff"/><rect x="190" y="22" width="11" height="11" rx="1.5"  fill="#fff"/><rect x="246" y="22" width="11" height="11" rx="1.5"  fill="#fff"/><rect x="190" y="36" width="11" height="11" rx="1.5"  fill="#fff"/><rect x="246" y="36" width="11" height="11" rx="1.5"  fill="#fff"/><rect x="190" y="50" width="11" height="11" rx="1.5"  fill="#fff"/><rect x="246" y="50" width="11" height="11" rx="1.5"  fill="#fff"/><rect x="190" y="64" width="11" height="11" rx="1.5"  fill="#fff"/><rect x="204" y="64" width="11" height="11" rx="1.5"  fill="#fff"/><rect x="218" y="64" width="11" height="11" rx="1.5"  fill="#fff"/><rect x="232" y="64" width="11" height="11" rx="1.5"  fill="#fff"/><rect x="246" y="64" width="11" height="11" rx="1.5"  fill="#fff"/><rect x="190" y="78" width="11" height="11" rx="1.5"  fill="#fff"/><rect x="246" y="78" width="11" height="11" rx="1.5"  fill="#fff"/><rect x="190" y="92" width="11" height="11" rx="1.5"  fill="#fff"/><rect x="246" y="92" width="11" height="11" rx="1.5"  fill="#fff"/><rect x="190" y="106" width="11" height="11" rx="1.5"  fill="#fff"/><rect x="246" y="106" width="11" height="11" rx="1.5"  fill="#fff"/><rect x="274" y="22" width="11" height="11" rx="1.5"  fill="#fff"/><rect x="330" y="22" width="11" height="11" rx="1.5"  fill="#fff"/><rect x="274" y="36" width="11" height="11" rx="1.5"  fill="#fff"/><rect x="288" y="36" width="11" height="11" rx="1.5"  fill="#fff"/><rect x="330" y="36" width="11" height="11" rx="1.5"  fill="#fff"/><rect x="274" y="50" width="11" height="11" rx="1.5"  fill="#fff"/><rect x="302" y="50" width="11" height="11" rx="1.5"  fill="#fff"/><rect x="330" y="50" width="11" height="11" rx="1.5"  fill="#fff"/><rect x="274" y="64" width="11" height="11" rx="1.5"  fill="#fff"/><rect x="302" y="64" width="11" height="11" rx="1.5"  fill="#fff"/><rect x="330" y="64" width="11" height="11" rx="1.5"  fill="#fff"/><rect x="274" y="78" width="11" height="11" rx="1.5"  fill="#fff"/><rect x="316" y="78" width="11" height="11" rx="1.5"  fill="#fff"/><rect x="330" y="78" width="11" height="11" rx="1.5"  fill="#fff"/><rect x="274" y="92" width="11" height="11" rx="1.5"  fill="#fff"/><rect x="330" y="92" width="11" height="11" rx="1.5"  fill="#fff"/><rect x="274" y="106" width="11" height="11" rx="1.5"  fill="#fff"/><rect x="330" y="106" width="11" height="11" rx="1.5"  fill="#fff"/><rect x="400" y="22" width="11" height="11" rx="1.5"  fill="#fff"/><rect x="414" y="22" width="11" height="11" rx="1.5"  fill="#fff"/><rect x="428" y="22" width="11" height="11" rx="1.5"  fill="#fff"/><rect x="442" y="22" width="11" height="11" rx="1.5"  fill="#fff"/><rect x="400" y="36" width="11" height="11" rx="1.5"  fill="#fff"/><rect x="456" y="36" width="11" height="11" rx="1.5"  fill="#fff"/><rect x="400" y="50" width="11" height="11" rx="1.5"  fill="#fff"/><rect x="456" y="50" width="11" height="11" rx="1.5"  fill="#fff"/><rect x="400" y="64" width="11" height="11" rx="1.5"  fill="#fff"/><rect x="414" y="64" width="11" height="11" rx="1.5"  fill="#fff"/><rect x="428" y="64" width="11" height="11" rx="1.5"  fill="#fff"/><rect x="442" y="64" width="11" height="11" rx="1.5"  fill="#fff"/><rect x="400" y="78" width="11" height="11" rx="1.5"  fill="#fff"/><rect x="400" y="92" width="11" height="11" rx="1.5"  fill="#fff"/><rect x="400" y="106" width="11" height="11" rx="1.5"  fill="#fff"/><rect x="498" y="22" width="11" height="11" rx="1.5"  fill="#fff"/><rect x="512" y="22" width="11" height="11" rx="1.5"  fill="#fff"/><rect x="526" y="22" width="11" height="11" rx="1.5"  fill="#fff"/><rect x="484" y="36" width="11" height="11" rx="1.5"  fill="#fff"/><rect x="540" y="36" width="11" height="11" rx="1.5"  fill="#fff"/><rect x="484" y="50" width="11" height="11" rx="1.5"  fill="#fff"/><rect x="540" y="50" width="11" height="11" rx="1.5"  fill="#fff"/><rect x="484" y="64" width="11" height="11" rx="1.5"  fill="#fff"/><rect x="498" y="64" width="11" height="11" rx="1.5"  fill="#fff"/><rect x="512" y="64" width="11" height="11" rx="1.5"  fill="#fff"/><rect x="526" y="64" width="11" height="11" rx="1.5"  fill="#fff"/><rect x="540" y="64" width="11" height="11" rx="1.5"  fill="#fff"/><rect x="484" y="78" width="11" height="11" rx="1.5"  fill="#fff"/><rect x="540" y="78" width="11" height="11" rx="1.5"  fill="#fff"/><rect x="484" y="92" width="11" height="11" rx="1.5"  fill="#fff"/><rect x="540" y="92" width="11" height="11" rx="1.5"  fill="#fff"/><rect x="484" y="106" width="11" height="11" rx="1.5"  fill="#fff"/><rect x="540" y="106" width="11" height="11" rx="1.5"  fill="#fff"/><rect x="568" y="22" width="11" height="11" rx="1.5"  fill="#fff"/><rect x="624" y="22" width="11" height="11" rx="1.5"  fill="#fff"/><rect x="568" y="36" width="11" height="11" rx="1.5"  fill="#fff"/><rect x="624" y="36" width="11" height="11" rx="1.5"  fill="#fff"/><rect x="568" y="50" width="11" height="11" rx="1.5"  fill="#fff"/><rect x="624" y="50" width="11" height="11" rx="1.5"  fill="#fff"/><rect x="568" y="64" width="11" height="11" rx="1.5"  fill="#fff"/><rect x="624" y="64" width="11" height="11" rx="1.5"  fill="#fff"/><rect x="568" y="78" width="11" height="11" rx="1.5"  fill="#fff"/><rect x="624" y="78" width="11" height="11" rx="1.5"  fill="#fff"/><rect x="568" y="92" width="11" height="11" rx="1.5"  fill="#fff"/><rect x="624" y="92" width="11" height="11" rx="1.5"  fill="#fff"/><rect x="582" y="106" width="11" height="11" rx="1.5"  fill="#fff"/><rect x="596" y="106" width="11" height="11" rx="1.5"  fill="#fff"/><rect x="610" y="106" width="11" height="11" rx="1.5"  fill="#fff"/><rect x="652" y="22" width="11" height="11" rx="1.5"  fill="#fff"/><rect x="652" y="36" width="11" height="11" rx="1.5"  fill="#fff"/><rect x="652" y="50" width="11" height="11" rx="1.5"  fill="#fff"/><rect x="652" y="64" width="11" height="11" rx="1.5"  fill="#fff"/><rect x="652" y="78" width="11" height="11" rx="1.5"  fill="#fff"/><rect x="652" y="92" width="11" height="11" rx="1.5"  fill="#fff"/><rect x="652" y="106" width="11" height="11" rx="1.5"  fill="#fff"/><rect x="666" y="106" width="11" height="11" rx="1.5"  fill="#fff"/><rect x="680" y="106" width="11" height="11" rx="1.5"  fill="#fff"/><rect x="694" y="106" width="11" height="11" rx="1.5"  fill="#fff"/><rect x="708" y="106" width="11" height="11" rx="1.5"  fill="#fff"/><rect x="127" y="141" width="11" height="11" rx="1.5"  fill="#fff"/><rect x="141" y="141" width="11" height="11" rx="1.5"  fill="#fff"/><rect x="155" y="141" width="11" height="11" rx="1.5"  fill="#fff"/><rect x="169" y="141" width="11" height="11" rx="1.5"  fill="#fff"/><rect x="183" y="141" width="11" height="11" rx="1.5"  fill="#fff"/><rect x="155" y="155" width="11" height="11" rx="1.5"  fill="#fff"/><rect x="155" y="169" width="11" height="11" rx="1.5"  fill="#fff"/><rect x="155" y="183" width="11" height="11" rx="1.5"  fill="#fff"/><rect x="155" y="197" width="11" height="11" rx="1.5"  fill="#fff"/><rect x="155" y="211" width="11" height="11" rx="1.5"  fill="#fff"/><rect x="155" y="225" width="11" height="11" rx="1.5"  fill="#fff"/><rect x="225" y="141" width="11" height="11" rx="1.5"  fill="#fff"/><rect x="239" y="141" width="11" height="11" rx="1.5"  fill="#fff"/><rect x="253" y="141" width="11" height="11" rx="1.5"  fill="#fff"/><rect x="211" y="155" width="11" height="11" rx="1.5"  fill="#fff"/><rect x="267" y="155" width="11" height="11" rx="1.5"  fill="#fff"/><rect x="211" y="169" width="11" height="11" rx="1.5"  fill="#fff"/><rect x="267" y="169" width="11" height="11" rx="1.5"  fill="#fff"/><rect x="211" y="183" width="11" height="11" rx="1.5"  fill="#fff"/><rect x="225" y="183" width="11" height="11" rx="1.5"  fill="#fff"/><rect x="239" y="183" width="11" height="11" rx="1.5"  fill="#fff"/><rect x="253" y="183" width="11" height="11" rx="1.5"  fill="#fff"/><rect x="267" y="183" width="11" height="11" rx="1.5"  fill="#fff"/><rect x="211" y="197" width="11" height="11" rx="1.5"  fill="#fff"/><rect x="267" y="197" width="11" height="11" rx="1.5"  fill="#fff"/><rect x="211" y="211" width="11" height="11" rx="1.5"  fill="#fff"/><rect x="267" y="211" width="11" height="11" rx="1.5"  fill="#fff"/><rect x="211" y="225" width="11" height="11" rx="1.5"  fill="#fff"/><rect x="267" y="225" width="11" height="11" rx="1.5"  fill="#fff"/><rect x="295" y="141" width="11" height="11" rx="1.5"  fill="#fff"/><rect x="351" y="141" width="11" height="11" rx="1.5"  fill="#fff"/><rect x="295" y="155" width="11" height="11" rx="1.5"  fill="#fff"/><rect x="351" y="155" width="11" height="11" rx="1.5"  fill="#fff"/><rect x="309" y="169" width="11" height="11" rx="1.5"  fill="#fff"/><rect x="337" y="169" width="11" height="11" rx="1.5"  fill="#fff"/><rect x="323" y="183" width="11" height="11" rx="1.5"  fill="#fff"/><rect x="323" y="197" width="11" height="11" rx="1.5"  fill="#fff"/><rect x="323" y="211" width="11" height="11" rx="1.5"  fill="#fff"/><rect x="323" y="225" width="11" height="11" rx="1.5"  fill="#fff"/><rect x="393" y="141" width="11" height="11" rx="1.5"  fill="#fff"/><rect x="407" y="141" width="11" height="11" rx="1.5"  fill="#fff"/><rect x="421" y="141" width="11" height="11" rx="1.5"  fill="#fff"/><rect x="379" y="155" width="11" height="11" rx="1.5"  fill="#fff"/><rect x="435" y="155" width="11" height="11" rx="1.5"  fill="#fff"/><rect x="379" y="169" width="11" height="11" rx="1.5"  fill="#fff"/><rect x="435" y="169" width="11" height="11" rx="1.5"  fill="#fff"/><rect x="379" y="183" width="11" height="11" rx="1.5"  fill="#fff"/><rect x="435" y="183" width="11" height="11" rx="1.5"  fill="#fff"/><rect x="379" y="197" width="11" height="11" rx="1.5"  fill="#fff"/><rect x="435" y="197" width="11" height="11" rx="1.5"  fill="#fff"/><rect x="379" y="211" width="11" height="11" rx="1.5"  fill="#fff"/><rect x="435" y="211" width="11" height="11" rx="1.5"  fill="#fff"/><rect x="393" y="225" width="11" height="11" rx="1.5"  fill="#fff"/><rect x="407" y="225" width="11" height="11" rx="1.5"  fill="#fff"/><rect x="421" y="225" width="11" height="11" rx="1.5"  fill="#fff"/><rect x="463" y="141" width="11" height="11" rx="1.5"  fill="#fff"/><rect x="519" y="141" width="11" height="11" rx="1.5"  fill="#fff"/><rect x="463" y="155" width="11" height="11" rx="1.5"  fill="#fff"/><rect x="477" y="155" width="11" height="11" rx="1.5"  fill="#fff"/><rect x="519" y="155" width="11" height="11" rx="1.5"  fill="#fff"/><rect x="463" y="169" width="11" height="11" rx="1.5"  fill="#fff"/><rect x="491" y="169" width="11" height="11" rx="1.5"  fill="#fff"/><rect x="519" y="169" width="11" height="11" rx="1.5"  fill="#fff"/><rect x="463" y="183" width="11" height="11" rx="1.5"  fill="#fff"/><rect x="491" y="183" width="11" height="11" rx="1.5"  fill="#fff"/><rect x="519" y="183" width="11" height="11" rx="1.5"  fill="#fff"/><rect x="463" y="197" width="11" height="11" rx="1.5"  fill="#fff"/><rect x="505" y="197" width="11" height="11" rx="1.5"  fill="#fff"/><rect x="519" y="197" width="11" height="11" rx="1.5"  fill="#fff"/><rect x="463" y="211" width="11" height="11" rx="1.5"  fill="#fff"/><rect x="519" y="211" width="11" height="11" rx="1.5"  fill="#fff"/><rect x="463" y="225" width="11" height="11" rx="1.5"  fill="#fff"/><rect x="519" y="225" width="11" height="11" rx="1.5"  fill="#fff"/><rect x="561" y="141" width="11" height="11" rx="1.5"  fill="#fff"/><rect x="575" y="141" width="11" height="11" rx="1.5"  fill="#fff"/><rect x="589" y="141" width="11" height="11" rx="1.5"  fill="#fff"/><rect x="547" y="155" width="11" height="11" rx="1.5"  fill="#fff"/><rect x="603" y="155" width="11" height="11" rx="1.5"  fill="#fff"/><rect x="547" y="169" width="11" height="11" rx="1.5"  fill="#fff"/><rect x="547" y="183" width="11" height="11" rx="1.5"  fill="#fff"/><rect x="589" y="183" width="11" height="11" rx="1.5"  fill="#fff"/><rect x="603" y="183" width="11" height="11" rx="1.5"  fill="#fff"/><rect x="547" y="197" width="11" height="11" rx="1.5"  fill="#fff"/><rect x="603" y="197" width="11" height="11" rx="1.5"  fill="#fff"/><rect x="547" y="211" width="11" height="11" rx="1.5"  fill="#fff"/><rect x="603" y="211" width="11" height="11" rx="1.5"  fill="#fff"/><rect x="561" y="225" width="11" height="11" rx="1.5"  fill="#fff"/><rect x="575" y="225" width="11" height="11" rx="1.5"  fill="#fff"/><rect x="589" y="225" width="11" height="11" rx="1.5"  fill="#fff"/></mask>
  </defs>
  <!-- offset outline (behind), warm wood tone -->
  <g fill-opacity="0.5"><rect x="54" y="27" width="11" height="11" rx="1.5"  fill="#8A633C"/><rect x="68" y="27" width="11" height="11" rx="1.5"  fill="#8A633C"/><rect x="82" y="27" width="11" height="11" rx="1.5"  fill="#8A633C"/><rect x="68" y="41" width="11" height="11" rx="1.5"  fill="#8A633C"/><rect x="68" y="55" width="11" height="11" rx="1.5"  fill="#8A633C"/><rect x="68" y="69" width="11" height="11" rx="1.5"  fill="#8A633C"/><rect x="68" y="83" width="11" height="11" rx="1.5"  fill="#8A633C"/><rect x="26" y="97" width="11" height="11" rx="1.5"  fill="#8A633C"/><rect x="68" y="97" width="11" height="11" rx="1.5"  fill="#8A633C"/><rect x="40" y="111" width="11" height="11" rx="1.5"  fill="#8A633C"/><rect x="54" y="111" width="11" height="11" rx="1.5"  fill="#8A633C"/><rect x="124" y="27" width="11" height="11" rx="1.5"  fill="#8A633C"/><rect x="138" y="27" width="11" height="11" rx="1.5"  fill="#8A633C"/><rect x="152" y="27" width="11" height="11" rx="1.5"  fill="#8A633C"/><rect x="110" y="41" width="11" height="11" rx="1.5"  fill="#8A633C"/><rect x="166" y="41" width="11" height="11" rx="1.5"  fill="#8A633C"/><rect x="110" y="55" width="11" height="11" rx="1.5"  fill="#8A633C"/><rect x="166" y="55" width="11" height="11" rx="1.5"  fill="#8A633C"/><rect x="110" y="69" width="11" height="11" rx="1.5"  fill="#8A633C"/><rect x="166" y="69" width="11" height="11" rx="1.5"  fill="#8A633C"/><rect x="110" y="83" width="11" height="11" rx="1.5"  fill="#8A633C"/><rect x="166" y="83" width="11" height="11" rx="1.5"  fill="#8A633C"/><rect x="110" y="97" width="11" height="11" rx="1.5"  fill="#8A633C"/><rect x="166" y="97" width="11" height="11" rx="1.5"  fill="#8A633C"/><rect x="124" y="111" width="11" height="11" rx="1.5"  fill="#8A633C"/><rect x="138" y="111" width="11" height="11" rx="1.5"  fill="#8A633C"/><rect x="152" y="111" width="11" height="11" rx="1.5"  fill="#8A633C"/><rect x="194" y="27" width="11" height="11" rx="1.5"  fill="#8A633C"/><rect x="250" y="27" width="11" height="11" rx="1.5"  fill="#8A633C"/><rect x="194" y="41" width="11" height="11" rx="1.5"  fill="#8A633C"/><rect x="250" y="41" width="11" height="11" rx="1.5"  fill="#8A633C"/><rect x="194" y="55" width="11" height="11" rx="1.5"  fill="#8A633C"/><rect x="250" y="55" width="11" height="11" rx="1.5"  fill="#8A633C"/><rect x="194" y="69" width="11" height="11" rx="1.5"  fill="#8A633C"/><rect x="208" y="69" width="11" height="11" rx="1.5"  fill="#8A633C"/><rect x="222" y="69" width="11" height="11" rx="1.5"  fill="#8A633C"/><rect x="236" y="69" width="11" height="11" rx="1.5"  fill="#8A633C"/><rect x="250" y="69" width="11" height="11" rx="1.5"  fill="#8A633C"/><rect x="194" y="83" width="11" height="11" rx="1.5"  fill="#8A633C"/><rect x="250" y="83" width="11" height="11" rx="1.5"  fill="#8A633C"/><rect x="194" y="97" width="11" height="11" rx="1.5"  fill="#8A633C"/><rect x="250" y="97" width="11" height="11" rx="1.5"  fill="#8A633C"/><rect x="194" y="111" width="11" height="11" rx="1.5"  fill="#8A633C"/><rect x="250" y="111" width="11" height="11" rx="1.5"  fill="#8A633C"/><rect x="278" y="27" width="11" height="11" rx="1.5"  fill="#8A633C"/><rect x="334" y="27" width="11" height="11" rx="1.5"  fill="#8A633C"/><rect x="278" y="41" width="11" height="11" rx="1.5"  fill="#8A633C"/><rect x="292" y="41" width="11" height="11" rx="1.5"  fill="#8A633C"/><rect x="334" y="41" width="11" height="11" rx="1.5"  fill="#8A633C"/><rect x="278" y="55" width="11" height="11" rx="1.5"  fill="#8A633C"/><rect x="306" y="55" width="11" height="11" rx="1.5"  fill="#8A633C"/><rect x="334" y="55" width="11" height="11" rx="1.5"  fill="#8A633C"/><rect x="278" y="69" width="11" height="11" rx="1.5"  fill="#8A633C"/><rect x="306" y="69" width="11" height="11" rx="1.5"  fill="#8A633C"/><rect x="334" y="69" width="11" height="11" rx="1.5"  fill="#8A633C"/><rect x="278" y="83" width="11" height="11" rx="1.5"  fill="#8A633C"/><rect x="320" y="83" width="11" height="11" rx="1.5"  fill="#8A633C"/><rect x="334" y="83" width="11" height="11" rx="1.5"  fill="#8A633C"/><rect x="278" y="97" width="11" height="11" rx="1.5"  fill="#8A633C"/><rect x="334" y="97" width="11" height="11" rx="1.5"  fill="#8A633C"/><rect x="278" y="111" width="11" height="11" rx="1.5"  fill="#8A633C"/><rect x="334" y="111" width="11" height="11" rx="1.5"  fill="#8A633C"/><rect x="404" y="27" width="11" height="11" rx="1.5"  fill="#8A633C"/><rect x="418" y="27" width="11" height="11" rx="1.5"  fill="#8A633C"/><rect x="432" y="27" width="11" height="11" rx="1.5"  fill="#8A633C"/><rect x="446" y="27" width="11" height="11" rx="1.5"  fill="#8A633C"/><rect x="404" y="41" width="11" height="11" rx="1.5"  fill="#8A633C"/><rect x="460" y="41" width="11" height="11" rx="1.5"  fill="#8A633C"/><rect x="404" y="55" width="11" height="11" rx="1.5"  fill="#8A633C"/><rect x="460" y="55" width="11" height="11" rx="1.5"  fill="#8A633C"/><rect x="404" y="69" width="11" height="11" rx="1.5"  fill="#8A633C"/><rect x="418" y="69" width="11" height="11" rx="1.5"  fill="#8A633C"/><rect x="432" y="69" width="11" height="11" rx="1.5"  fill="#8A633C"/><rect x="446" y="69" width="11" height="11" rx="1.5"  fill="#8A633C"/><rect x="404" y="83" width="11" height="11" rx="1.5"  fill="#8A633C"/><rect x="404" y="97" width="11" height="11" rx="1.5"  fill="#8A633C"/><rect x="404" y="111" width="11" height="11" rx="1.5"  fill="#8A633C"/><rect x="502" y="27" width="11" height="11" rx="1.5"  fill="#8A633C"/><rect x="516" y="27" width="11" height="11" rx="1.5"  fill="#8A633C"/><rect x="530" y="27" width="11" height="11" rx="1.5"  fill="#8A633C"/><rect x="488" y="41" width="11" height="11" rx="1.5"  fill="#8A633C"/><rect x="544" y="41" width="11" height="11" rx="1.5"  fill="#8A633C"/><rect x="488" y="55" width="11" height="11" rx="1.5"  fill="#8A633C"/><rect x="544" y="55" width="11" height="11" rx="1.5"  fill="#8A633C"/><rect x="488" y="69" width="11" height="11" rx="1.5"  fill="#8A633C"/><rect x="502" y="69" width="11" height="11" rx="1.5"  fill="#8A633C"/><rect x="516" y="69" width="11" height="11" rx="1.5"  fill="#8A633C"/><rect x="530" y="69" width="11" height="11" rx="1.5"  fill="#8A633C"/><rect x="544" y="69" width="11" height="11" rx="1.5"  fill="#8A633C"/><rect x="488" y="83" width="11" height="11" rx="1.5"  fill="#8A633C"/><rect x="544" y="83" width="11" height="11" rx="1.5"  fill="#8A633C"/><rect x="488" y="97" width="11" height="11" rx="1.5"  fill="#8A633C"/><rect x="544" y="97" width="11" height="11" rx="1.5"  fill="#8A633C"/><rect x="488" y="111" width="11" height="11" rx="1.5"  fill="#8A633C"/><rect x="544" y="111" width="11" height="11" rx="1.5"  fill="#8A633C"/><rect x="572" y="27" width="11" height="11" rx="1.5"  fill="#8A633C"/><rect x="628" y="27" width="11" height="11" rx="1.5"  fill="#8A633C"/><rect x="572" y="41" width="11" height="11" rx="1.5"  fill="#8A633C"/><rect x="628" y="41" width="11" height="11" rx="1.5"  fill="#8A633C"/><rect x="572" y="55" width="11" height="11" rx="1.5"  fill="#8A633C"/><rect x="628" y="55" width="11" height="11" rx="1.5"  fill="#8A633C"/><rect x="572" y="69" width="11" height="11" rx="1.5"  fill="#8A633C"/><rect x="628" y="69" width="11" height="11" rx="1.5"  fill="#8A633C"/><rect x="572" y="83" width="11" height="11" rx="1.5"  fill="#8A633C"/><rect x="628" y="83" width="11" height="11" rx="1.5"  fill="#8A633C"/><rect x="572" y="97" width="11" height="11" rx="1.5"  fill="#8A633C"/><rect x="628" y="97" width="11" height="11" rx="1.5"  fill="#8A633C"/><rect x="586" y="111" width="11" height="11" rx="1.5"  fill="#8A633C"/><rect x="600" y="111" width="11" height="11" rx="1.5"  fill="#8A633C"/><rect x="614" y="111" width="11" height="11" rx="1.5"  fill="#8A633C"/><rect x="656" y="27" width="11" height="11" rx="1.5"  fill="#8A633C"/><rect x="656" y="41" width="11" height="11" rx="1.5"  fill="#8A633C"/><rect x="656" y="55" width="11" height="11" rx="1.5"  fill="#8A633C"/><rect x="656" y="69" width="11" height="11" rx="1.5"  fill="#8A633C"/><rect x="656" y="83" width="11" height="11" rx="1.5"  fill="#8A633C"/><rect x="656" y="97" width="11" height="11" rx="1.5"  fill="#8A633C"/><rect x="656" y="111" width="11" height="11" rx="1.5"  fill="#8A633C"/><rect x="670" y="111" width="11" height="11" rx="1.5"  fill="#8A633C"/><rect x="684" y="111" width="11" height="11" rx="1.5"  fill="#8A633C"/><rect x="698" y="111" width="11" height="11" rx="1.5"  fill="#8A633C"/><rect x="712" y="111" width="11" height="11" rx="1.5"  fill="#8A633C"/><rect x="131" y="146" width="11" height="11" rx="1.5"  fill="#8A633C"/><rect x="145" y="146" width="11" height="11" rx="1.5"  fill="#8A633C"/><rect x="159" y="146" width="11" height="11" rx="1.5"  fill="#8A633C"/><rect x="173" y="146" width="11" height="11" rx="1.5"  fill="#8A633C"/><rect x="187" y="146" width="11" height="11" rx="1.5"  fill="#8A633C"/><rect x="159" y="160" width="11" height="11" rx="1.5"  fill="#8A633C"/><rect x="159" y="174" width="11" height="11" rx="1.5"  fill="#8A633C"/><rect x="159" y="188" width="11" height="11" rx="1.5"  fill="#8A633C"/><rect x="159" y="202" width="11" height="11" rx="1.5"  fill="#8A633C"/><rect x="159" y="216" width="11" height="11" rx="1.5"  fill="#8A633C"/><rect x="159" y="230" width="11" height="11" rx="1.5"  fill="#8A633C"/><rect x="229" y="146" width="11" height="11" rx="1.5"  fill="#8A633C"/><rect x="243" y="146" width="11" height="11" rx="1.5"  fill="#8A633C"/><rect x="257" y="146" width="11" height="11" rx="1.5"  fill="#8A633C"/><rect x="215" y="160" width="11" height="11" rx="1.5"  fill="#8A633C"/><rect x="271" y="160" width="11" height="11" rx="1.5"  fill="#8A633C"/><rect x="215" y="174" width="11" height="11" rx="1.5"  fill="#8A633C"/><rect x="271" y="174" width="11" height="11" rx="1.5"  fill="#8A633C"/><rect x="215" y="188" width="11" height="11" rx="1.5"  fill="#8A633C"/><rect x="229" y="188" width="11" height="11" rx="1.5"  fill="#8A633C"/><rect x="243" y="188" width="11" height="11" rx="1.5"  fill="#8A633C"/><rect x="257" y="188" width="11" height="11" rx="1.5"  fill="#8A633C"/><rect x="271" y="188" width="11" height="11" rx="1.5"  fill="#8A633C"/><rect x="215" y="202" width="11" height="11" rx="1.5"  fill="#8A633C"/><rect x="271" y="202" width="11" height="11" rx="1.5"  fill="#8A633C"/><rect x="215" y="216" width="11" height="11" rx="1.5"  fill="#8A633C"/><rect x="271" y="216" width="11" height="11" rx="1.5"  fill="#8A633C"/><rect x="215" y="230" width="11" height="11" rx="1.5"  fill="#8A633C"/><rect x="271" y="230" width="11" height="11" rx="1.5"  fill="#8A633C"/><rect x="299" y="146" width="11" height="11" rx="1.5"  fill="#8A633C"/><rect x="355" y="146" width="11" height="11" rx="1.5"  fill="#8A633C"/><rect x="299" y="160" width="11" height="11" rx="1.5"  fill="#8A633C"/><rect x="355" y="160" width="11" height="11" rx="1.5"  fill="#8A633C"/><rect x="313" y="174" width="11" height="11" rx="1.5"  fill="#8A633C"/><rect x="341" y="174" width="11" height="11" rx="1.5"  fill="#8A633C"/><rect x="327" y="188" width="11" height="11" rx="1.5"  fill="#8A633C"/><rect x="327" y="202" width="11" height="11" rx="1.5"  fill="#8A633C"/><rect x="327" y="216" width="11" height="11" rx="1.5"  fill="#8A633C"/><rect x="327" y="230" width="11" height="11" rx="1.5"  fill="#8A633C"/><rect x="397" y="146" width="11" height="11" rx="1.5"  fill="#8A633C"/><rect x="411" y="146" width="11" height="11" rx="1.5"  fill="#8A633C"/><rect x="425" y="146" width="11" height="11" rx="1.5"  fill="#8A633C"/><rect x="383" y="160" width="11" height="11" rx="1.5"  fill="#8A633C"/><rect x="439" y="160" width="11" height="11" rx="1.5"  fill="#8A633C"/><rect x="383" y="174" width="11" height="11" rx="1.5"  fill="#8A633C"/><rect x="439" y="174" width="11" height="11" rx="1.5"  fill="#8A633C"/><rect x="383" y="188" width="11" height="11" rx="1.5"  fill="#8A633C"/><rect x="439" y="188" width="11" height="11" rx="1.5"  fill="#8A633C"/><rect x="383" y="202" width="11" height="11" rx="1.5"  fill="#8A633C"/><rect x="439" y="202" width="11" height="11" rx="1.5"  fill="#8A633C"/><rect x="383" y="216" width="11" height="11" rx="1.5"  fill="#8A633C"/><rect x="439" y="216" width="11" height="11" rx="1.5"  fill="#8A633C"/><rect x="397" y="230" width="11" height="11" rx="1.5"  fill="#8A633C"/><rect x="411" y="230" width="11" height="11" rx="1.5"  fill="#8A633C"/><rect x="425" y="230" width="11" height="11" rx="1.5"  fill="#8A633C"/><rect x="467" y="146" width="11" height="11" rx="1.5"  fill="#8A633C"/><rect x="523" y="146" width="11" height="11" rx="1.5"  fill="#8A633C"/><rect x="467" y="160" width="11" height="11" rx="1.5"  fill="#8A633C"/><rect x="481" y="160" width="11" height="11" rx="1.5"  fill="#8A633C"/><rect x="523" y="160" width="11" height="11" rx="1.5"  fill="#8A633C"/><rect x="467" y="174" width="11" height="11" rx="1.5"  fill="#8A633C"/><rect x="495" y="174" width="11" height="11" rx="1.5"  fill="#8A633C"/><rect x="523" y="174" width="11" height="11" rx="1.5"  fill="#8A633C"/><rect x="467" y="188" width="11" height="11" rx="1.5"  fill="#8A633C"/><rect x="495" y="188" width="11" height="11" rx="1.5"  fill="#8A633C"/><rect x="523" y="188" width="11" height="11" rx="1.5"  fill="#8A633C"/><rect x="467" y="202" width="11" height="11" rx="1.5"  fill="#8A633C"/><rect x="509" y="202" width="11" height="11" rx="1.5"  fill="#8A633C"/><rect x="523" y="202" width="11" height="11" rx="1.5"  fill="#8A633C"/><rect x="467" y="216" width="11" height="11" rx="1.5"  fill="#8A633C"/><rect x="523" y="216" width="11" height="11" rx="1.5"  fill="#8A633C"/><rect x="467" y="230" width="11" height="11" rx="1.5"  fill="#8A633C"/><rect x="523" y="230" width="11" height="11" rx="1.5"  fill="#8A633C"/><rect x="565" y="146" width="11" height="11" rx="1.5"  fill="#8A633C"/><rect x="579" y="146" width="11" height="11" rx="1.5"  fill="#8A633C"/><rect x="593" y="146" width="11" height="11" rx="1.5"  fill="#8A633C"/><rect x="551" y="160" width="11" height="11" rx="1.5"  fill="#8A633C"/><rect x="607" y="160" width="11" height="11" rx="1.5"  fill="#8A633C"/><rect x="551" y="174" width="11" height="11" rx="1.5"  fill="#8A633C"/><rect x="551" y="188" width="11" height="11" rx="1.5"  fill="#8A633C"/><rect x="593" y="188" width="11" height="11" rx="1.5"  fill="#8A633C"/><rect x="607" y="188" width="11" height="11" rx="1.5"  fill="#8A633C"/><rect x="551" y="202" width="11" height="11" rx="1.5"  fill="#8A633C"/><rect x="607" y="202" width="11" height="11" rx="1.5"  fill="#8A633C"/><rect x="551" y="216" width="11" height="11" rx="1.5"  fill="#8A633C"/><rect x="607" y="216" width="11" height="11" rx="1.5"  fill="#8A633C"/><rect x="565" y="230" width="11" height="11" rx="1.5"  fill="#8A633C"/><rect x="579" y="230" width="11" height="11" rx="1.5"  fill="#8A633C"/><rect x="593" y="230" width="11" height="11" rx="1.5"  fill="#8A633C"/></g>
  <!-- amber tiles (always visible) -->
  <g><rect x="50" y="22" width="11" height="11" rx="1.5"  fill="url(#amber)"/><rect x="64" y="22" width="11" height="11" rx="1.5"  fill="url(#amber)"/><rect x="78" y="22" width="11" height="11" rx="1.5"  fill="url(#amber)"/><rect x="64" y="36" width="11" height="11" rx="1.5"  fill="url(#amber)"/><rect x="64" y="50" width="11" height="11" rx="1.5"  fill="url(#amber)"/><rect x="64" y="64" width="11" height="11" rx="1.5"  fill="url(#amber)"/><rect x="64" y="78" width="11" height="11" rx="1.5"  fill="url(#amber)"/><rect x="22" y="92" width="11" height="11" rx="1.5"  fill="url(#amber)"/><rect x="64" y="92" width="11" height="11" rx="1.5"  fill="url(#amber)"/><rect x="36" y="106" width="11" height="11" rx="1.5"  fill="url(#amber)"/><rect x="50" y="106" width="11" height="11" rx="1.5"  fill="url(#amber)"/><rect x="120" y="22" width="11" height="11" rx="1.5"  fill="url(#amber)"/><rect x="134" y="22" width="11" height="11" rx="1.5"  fill="url(#amber)"/><rect x="148" y="22" width="11" height="11" rx="1.5"  fill="url(#amber)"/><rect x="106" y="36" width="11" height="11" rx="1.5"  fill="url(#amber)"/><rect x="162" y="36" width="11" height="11" rx="1.5"  fill="url(#amber)"/><rect x="106" y="50" width="11" height="11" rx="1.5"  fill="url(#amber)"/><rect x="162" y="50" width="11" height="11" rx="1.5"  fill="url(#amber)"/><rect x="106" y="64" width="11" height="11" rx="1.5"  fill="url(#amber)"/><rect x="162" y="64" width="11" height="11" rx="1.5"  fill="url(#amber)"/><rect x="106" y="78" width="11" height="11" rx="1.5"  fill="url(#amber)"/><rect x="162" y="78" width="11" height="11" rx="1.5"  fill="url(#amber)"/><rect x="106" y="92" width="11" height="11" rx="1.5"  fill="url(#amber)"/><rect x="162" y="92" width="11" height="11" rx="1.5"  fill="url(#amber)"/><rect x="120" y="106" width="11" height="11" rx="1.5"  fill="url(#amber)"/><rect x="134" y="106" width="11" height="11" rx="1.5"  fill="url(#amber)"/><rect x="148" y="106" width="11" height="11" rx="1.5"  fill="url(#amber)"/><rect x="190" y="22" width="11" height="11" rx="1.5"  fill="url(#amber)"/><rect x="246" y="22" width="11" height="11" rx="1.5"  fill="url(#amber)"/><rect x="190" y="36" width="11" height="11" rx="1.5"  fill="url(#amber)"/><rect x="246" y="36" width="11" height="11" rx="1.5"  fill="url(#amber)"/><rect x="190" y="50" width="11" height="11" rx="1.5"  fill="url(#amber)"/><rect x="246" y="50" width="11" height="11" rx="1.5"  fill="url(#amber)"/><rect x="190" y="64" width="11" height="11" rx="1.5"  fill="url(#amber)"/><rect x="204" y="64" width="11" height="11" rx="1.5"  fill="url(#amber)"/><rect x="218" y="64" width="11" height="11" rx="1.5"  fill="url(#amber)"/><rect x="232" y="64" width="11" height="11" rx="1.5"  fill="url(#amber)"/><rect x="246" y="64" width="11" height="11" rx="1.5"  fill="url(#amber)"/><rect x="190" y="78" width="11" height="11" rx="1.5"  fill="url(#amber)"/><rect x="246" y="78" width="11" height="11" rx="1.5"  fill="url(#amber)"/><rect x="190" y="92" width="11" height="11" rx="1.5"  fill="url(#amber)"/><rect x="246" y="92" width="11" height="11" rx="1.5"  fill="url(#amber)"/><rect x="190" y="106" width="11" height="11" rx="1.5"  fill="url(#amber)"/><rect x="246" y="106" width="11" height="11" rx="1.5"  fill="url(#amber)"/><rect x="274" y="22" width="11" height="11" rx="1.5"  fill="url(#amber)"/><rect x="330" y="22" width="11" height="11" rx="1.5"  fill="url(#amber)"/><rect x="274" y="36" width="11" height="11" rx="1.5"  fill="url(#amber)"/><rect x="288" y="36" width="11" height="11" rx="1.5"  fill="url(#amber)"/><rect x="330" y="36" width="11" height="11" rx="1.5"  fill="url(#amber)"/><rect x="274" y="50" width="11" height="11" rx="1.5"  fill="url(#amber)"/><rect x="302" y="50" width="11" height="11" rx="1.5"  fill="url(#amber)"/><rect x="330" y="50" width="11" height="11" rx="1.5"  fill="url(#amber)"/><rect x="274" y="64" width="11" height="11" rx="1.5"  fill="url(#amber)"/><rect x="302" y="64" width="11" height="11" rx="1.5"  fill="url(#amber)"/><rect x="330" y="64" width="11" height="11" rx="1.5"  fill="url(#amber)"/><rect x="274" y="78" width="11" height="11" rx="1.5"  fill="url(#amber)"/><rect x="316" y="78" width="11" height="11" rx="1.5"  fill="url(#amber)"/><rect x="330" y="78" width="11" height="11" rx="1.5"  fill="url(#amber)"/><rect x="274" y="92" width="11" height="11" rx="1.5"  fill="url(#amber)"/><rect x="330" y="92" width="11" height="11" rx="1.5"  fill="url(#amber)"/><rect x="274" y="106" width="11" height="11" rx="1.5"  fill="url(#amber)"/><rect x="330" y="106" width="11" height="11" rx="1.5"  fill="url(#amber)"/><rect x="400" y="22" width="11" height="11" rx="1.5"  fill="url(#amber)"/><rect x="414" y="22" width="11" height="11" rx="1.5"  fill="url(#amber)"/><rect x="428" y="22" width="11" height="11" rx="1.5"  fill="url(#amber)"/><rect x="442" y="22" width="11" height="11" rx="1.5"  fill="url(#amber)"/><rect x="400" y="36" width="11" height="11" rx="1.5"  fill="url(#amber)"/><rect x="456" y="36" width="11" height="11" rx="1.5"  fill="url(#amber)"/><rect x="400" y="50" width="11" height="11" rx="1.5"  fill="url(#amber)"/><rect x="456" y="50" width="11" height="11" rx="1.5"  fill="url(#amber)"/><rect x="400" y="64" width="11" height="11" rx="1.5"  fill="url(#amber)"/><rect x="414" y="64" width="11" height="11" rx="1.5"  fill="url(#amber)"/><rect x="428" y="64" width="11" height="11" rx="1.5"  fill="url(#amber)"/><rect x="442" y="64" width="11" height="11" rx="1.5"  fill="url(#amber)"/><rect x="400" y="78" width="11" height="11" rx="1.5"  fill="url(#amber)"/><rect x="400" y="92" width="11" height="11" rx="1.5"  fill="url(#amber)"/><rect x="400" y="106" width="11" height="11" rx="1.5"  fill="url(#amber)"/><rect x="498" y="22" width="11" height="11" rx="1.5"  fill="url(#amber)"/><rect x="512" y="22" width="11" height="11" rx="1.5"  fill="url(#amber)"/><rect x="526" y="22" width="11" height="11" rx="1.5"  fill="url(#amber)"/><rect x="484" y="36" width="11" height="11" rx="1.5"  fill="url(#amber)"/><rect x="540" y="36" width="11" height="11" rx="1.5"  fill="url(#amber)"/><rect x="484" y="50" width="11" height="11" rx="1.5"  fill="url(#amber)"/><rect x="540" y="50" width="11" height="11" rx="1.5"  fill="url(#amber)"/><rect x="484" y="64" width="11" height="11" rx="1.5"  fill="url(#amber)"/><rect x="498" y="64" width="11" height="11" rx="1.5"  fill="url(#amber)"/><rect x="512" y="64" width="11" height="11" rx="1.5"  fill="url(#amber)"/><rect x="526" y="64" width="11" height="11" rx="1.5"  fill="url(#amber)"/><rect x="540" y="64" width="11" height="11" rx="1.5"  fill="url(#amber)"/><rect x="484" y="78" width="11" height="11" rx="1.5"  fill="url(#amber)"/><rect x="540" y="78" width="11" height="11" rx="1.5"  fill="url(#amber)"/><rect x="484" y="92" width="11" height="11" rx="1.5"  fill="url(#amber)"/><rect x="540" y="92" width="11" height="11" rx="1.5"  fill="url(#amber)"/><rect x="484" y="106" width="11" height="11" rx="1.5"  fill="url(#amber)"/><rect x="540" y="106" width="11" height="11" rx="1.5"  fill="url(#amber)"/><rect x="568" y="22" width="11" height="11" rx="1.5"  fill="url(#amber)"/><rect x="624" y="22" width="11" height="11" rx="1.5"  fill="url(#amber)"/><rect x="568" y="36" width="11" height="11" rx="1.5"  fill="url(#amber)"/><rect x="624" y="36" width="11" height="11" rx="1.5"  fill="url(#amber)"/><rect x="568" y="50" width="11" height="11" rx="1.5"  fill="url(#amber)"/><rect x="624" y="50" width="11" height="11" rx="1.5"  fill="url(#amber)"/><rect x="568" y="64" width="11" height="11" rx="1.5"  fill="url(#amber)"/><rect x="624" y="64" width="11" height="11" rx="1.5"  fill="url(#amber)"/><rect x="568" y="78" width="11" height="11" rx="1.5"  fill="url(#amber)"/><rect x="624" y="78" width="11" height="11" rx="1.5"  fill="url(#amber)"/><rect x="568" y="92" width="11" height="11" rx="1.5"  fill="url(#amber)"/><rect x="624" y="92" width="11" height="11" rx="1.5"  fill="url(#amber)"/><rect x="582" y="106" width="11" height="11" rx="1.5"  fill="url(#amber)"/><rect x="596" y="106" width="11" height="11" rx="1.5"  fill="url(#amber)"/><rect x="610" y="106" width="11" height="11" rx="1.5"  fill="url(#amber)"/><rect x="652" y="22" width="11" height="11" rx="1.5"  fill="url(#amber)"/><rect x="652" y="36" width="11" height="11" rx="1.5"  fill="url(#amber)"/><rect x="652" y="50" width="11" height="11" rx="1.5"  fill="url(#amber)"/><rect x="652" y="64" width="11" height="11" rx="1.5"  fill="url(#amber)"/><rect x="652" y="78" width="11" height="11" rx="1.5"  fill="url(#amber)"/><rect x="652" y="92" width="11" height="11" rx="1.5"  fill="url(#amber)"/><rect x="652" y="106" width="11" height="11" rx="1.5"  fill="url(#amber)"/><rect x="666" y="106" width="11" height="11" rx="1.5"  fill="url(#amber)"/><rect x="680" y="106" width="11" height="11" rx="1.5"  fill="url(#amber)"/><rect x="694" y="106" width="11" height="11" rx="1.5"  fill="url(#amber)"/><rect x="708" y="106" width="11" height="11" rx="1.5"  fill="url(#amber)"/><rect x="127" y="141" width="11" height="11" rx="1.5"  fill="url(#amber)"/><rect x="141" y="141" width="11" height="11" rx="1.5"  fill="url(#amber)"/><rect x="155" y="141" width="11" height="11" rx="1.5"  fill="url(#amber)"/><rect x="169" y="141" width="11" height="11" rx="1.5"  fill="url(#amber)"/><rect x="183" y="141" width="11" height="11" rx="1.5"  fill="url(#amber)"/><rect x="155" y="155" width="11" height="11" rx="1.5"  fill="url(#amber)"/><rect x="155" y="169" width="11" height="11" rx="1.5"  fill="url(#amber)"/><rect x="155" y="183" width="11" height="11" rx="1.5"  fill="url(#amber)"/><rect x="155" y="197" width="11" height="11" rx="1.5"  fill="url(#amber)"/><rect x="155" y="211" width="11" height="11" rx="1.5"  fill="url(#amber)"/><rect x="155" y="225" width="11" height="11" rx="1.5"  fill="url(#amber)"/><rect x="225" y="141" width="11" height="11" rx="1.5"  fill="url(#amber)"/><rect x="239" y="141" width="11" height="11" rx="1.5"  fill="url(#amber)"/><rect x="253" y="141" width="11" height="11" rx="1.5"  fill="url(#amber)"/><rect x="211" y="155" width="11" height="11" rx="1.5"  fill="url(#amber)"/><rect x="267" y="155" width="11" height="11" rx="1.5"  fill="url(#amber)"/><rect x="211" y="169" width="11" height="11" rx="1.5"  fill="url(#amber)"/><rect x="267" y="169" width="11" height="11" rx="1.5"  fill="url(#amber)"/><rect x="211" y="183" width="11" height="11" rx="1.5"  fill="url(#amber)"/><rect x="225" y="183" width="11" height="11" rx="1.5"  fill="url(#amber)"/><rect x="239" y="183" width="11" height="11" rx="1.5"  fill="url(#amber)"/><rect x="253" y="183" width="11" height="11" rx="1.5"  fill="url(#amber)"/><rect x="267" y="183" width="11" height="11" rx="1.5"  fill="url(#amber)"/><rect x="211" y="197" width="11" height="11" rx="1.5"  fill="url(#amber)"/><rect x="267" y="197" width="11" height="11" rx="1.5"  fill="url(#amber)"/><rect x="211" y="211" width="11" height="11" rx="1.5"  fill="url(#amber)"/><rect x="267" y="211" width="11" height="11" rx="1.5"  fill="url(#amber)"/><rect x="211" y="225" width="11" height="11" rx="1.5"  fill="url(#amber)"/><rect x="267" y="225" width="11" height="11" rx="1.5"  fill="url(#amber)"/><rect x="295" y="141" width="11" height="11" rx="1.5"  fill="url(#amber)"/><rect x="351" y="141" width="11" height="11" rx="1.5"  fill="url(#amber)"/><rect x="295" y="155" width="11" height="11" rx="1.5"  fill="url(#amber)"/><rect x="351" y="155" width="11" height="11" rx="1.5"  fill="url(#amber)"/><rect x="309" y="169" width="11" height="11" rx="1.5"  fill="url(#amber)"/><rect x="337" y="169" width="11" height="11" rx="1.5"  fill="url(#amber)"/><rect x="323" y="183" width="11" height="11" rx="1.5"  fill="url(#amber)"/><rect x="323" y="197" width="11" height="11" rx="1.5"  fill="url(#amber)"/><rect x="323" y="211" width="11" height="11" rx="1.5"  fill="url(#amber)"/><rect x="323" y="225" width="11" height="11" rx="1.5"  fill="url(#amber)"/><rect x="393" y="141" width="11" height="11" rx="1.5"  fill="url(#amber)"/><rect x="407" y="141" width="11" height="11" rx="1.5"  fill="url(#amber)"/><rect x="421" y="141" width="11" height="11" rx="1.5"  fill="url(#amber)"/><rect x="379" y="155" width="11" height="11" rx="1.5"  fill="url(#amber)"/><rect x="435" y="155" width="11" height="11" rx="1.5"  fill="url(#amber)"/><rect x="379" y="169" width="11" height="11" rx="1.5"  fill="url(#amber)"/><rect x="435" y="169" width="11" height="11" rx="1.5"  fill="url(#amber)"/><rect x="379" y="183" width="11" height="11" rx="1.5"  fill="url(#amber)"/><rect x="435" y="183" width="11" height="11" rx="1.5"  fill="url(#amber)"/><rect x="379" y="197" width="11" height="11" rx="1.5"  fill="url(#amber)"/><rect x="435" y="197" width="11" height="11" rx="1.5"  fill="url(#amber)"/><rect x="379" y="211" width="11" height="11" rx="1.5"  fill="url(#amber)"/><rect x="435" y="211" width="11" height="11" rx="1.5"  fill="url(#amber)"/><rect x="393" y="225" width="11" height="11" rx="1.5"  fill="url(#amber)"/><rect x="407" y="225" width="11" height="11" rx="1.5"  fill="url(#amber)"/><rect x="421" y="225" width="11" height="11" rx="1.5"  fill="url(#amber)"/><rect x="463" y="141" width="11" height="11" rx="1.5"  fill="url(#amber)"/><rect x="519" y="141" width="11" height="11" rx="1.5"  fill="url(#amber)"/><rect x="463" y="155" width="11" height="11" rx="1.5"  fill="url(#amber)"/><rect x="477" y="155" width="11" height="11" rx="1.5"  fill="url(#amber)"/><rect x="519" y="155" width="11" height="11" rx="1.5"  fill="url(#amber)"/><rect x="463" y="169" width="11" height="11" rx="1.5"  fill="url(#amber)"/><rect x="491" y="169" width="11" height="11" rx="1.5"  fill="url(#amber)"/><rect x="519" y="169" width="11" height="11" rx="1.5"  fill="url(#amber)"/><rect x="463" y="183" width="11" height="11" rx="1.5"  fill="url(#amber)"/><rect x="491" y="183" width="11" height="11" rx="1.5"  fill="url(#amber)"/><rect x="519" y="183" width="11" height="11" rx="1.5"  fill="url(#amber)"/><rect x="463" y="197" width="11" height="11" rx="1.5"  fill="url(#amber)"/><rect x="505" y="197" width="11" height="11" rx="1.5"  fill="url(#amber)"/><rect x="519" y="197" width="11" height="11" rx="1.5"  fill="url(#amber)"/><rect x="463" y="211" width="11" height="11" rx="1.5"  fill="url(#amber)"/><rect x="519" y="211" width="11" height="11" rx="1.5"  fill="url(#amber)"/><rect x="463" y="225" width="11" height="11" rx="1.5"  fill="url(#amber)"/><rect x="519" y="225" width="11" height="11" rx="1.5"  fill="url(#amber)"/><rect x="561" y="141" width="11" height="11" rx="1.5"  fill="url(#amber)"/><rect x="575" y="141" width="11" height="11" rx="1.5"  fill="url(#amber)"/><rect x="589" y="141" width="11" height="11" rx="1.5"  fill="url(#amber)"/><rect x="547" y="155" width="11" height="11" rx="1.5"  fill="url(#amber)"/><rect x="603" y="155" width="11" height="11" rx="1.5"  fill="url(#amber)"/><rect x="547" y="169" width="11" height="11" rx="1.5"  fill="url(#amber)"/><rect x="547" y="183" width="11" height="11" rx="1.5"  fill="url(#amber)"/><rect x="589" y="183" width="11" height="11" rx="1.5"  fill="url(#amber)"/><rect x="603" y="183" width="11" height="11" rx="1.5"  fill="url(#amber)"/><rect x="547" y="197" width="11" height="11" rx="1.5"  fill="url(#amber)"/><rect x="603" y="197" width="11" height="11" rx="1.5"  fill="url(#amber)"/><rect x="547" y="211" width="11" height="11" rx="1.5"  fill="url(#amber)"/><rect x="603" y="211" width="11" height="11" rx="1.5"  fill="url(#amber)"/><rect x="561" y="225" width="11" height="11" rx="1.5"  fill="url(#amber)"/><rect x="575" y="225" width="11" height="11" rx="1.5"  fill="url(#amber)"/><rect x="589" y="225" width="11" height="11" rx="1.5"  fill="url(#amber)"/></g>
  <!-- animated sheen, clipped to the wordmark -->
  <g mask="url(#wm)">
    <rect x="0" y="0" width="741" height="258" fill="url(#sheen)"/>
  </g>
</svg>